<svg width="320" height="320" viewBox="0 0 320 320" fill="none" xmlns="http://www.w3.org/2000/svg">
  <defs>
    <radialGradient id="ocean" cx="0" cy="0" r="1" gradientUnits="userSpaceOnUse" gradientTransform="translate(128 104) rotate(50) scale(208)">
      <stop offset="0" stop-color="#6D95FF"/>
      <stop offset="0.45" stop-color="#4F78E6"/>
      <stop offset="1" stop-color="#2F52B7"/>
    </radialGradient>
    <radialGradient id="shine" cx="0" cy="0" r="1" gradientUnits="userSpaceOnUse" gradientTransform="translate(102 84) rotate(43) scale(166)">
      <stop offset="0" stop-color="white" stop-opacity="0.55"/>
      <stop offset="1" stop-color="white" stop-opacity="0"/>
    </radialGradient>
    <linearGradient id="land" x1="0" y1="0" x2="1" y2="1">
      <stop offset="0" stop-color="#71D18B"/>
      <stop offset="1" stop-color="#4DA363"/>
    </linearGradient>
    <linearGradient id="sand" x1="0" y1="0" x2="1" y2="1">
      <stop offset="0" stop-color="#FFD7A6"/>
      <stop offset="1" stop-color="#F3BE7C"/>
    </linearGradient>
    <filter id="shadow" x="2" y="2" width="316" height="316" filterUnits="userSpaceOnUse" color-interpolation-filters="sRGB">
      <feDropShadow dx="0" dy="12" stdDeviation="10" flood-color="#16213F" flood-opacity="0.18"/>
    </filter>
  </defs>

  <g filter="url(#shadow)">
    <circle cx="160" cy="160" r="148" fill="#17131C"/>
    <circle cx="160" cy="160" r="141" fill="url(#ocean)"/>
    <circle cx="160" cy="160" r="141" fill="url(#shine)"/>
    <path d="M62 72C79 57 103 46 118 53C131 59 137 74 126 82C116 89 108 94 106 106C104 116 94 121 83 119C71 116 61 112 53 104C45 96 47 83 62 72Z" fill="url(#sand)"/>
    <path d="M84 74C108 53 136 47 156 58C171 66 182 78 174 92C165 106 142 100 131 109C120 117 121 141 104 147C88 153 60 145 54 124C47 101 63 88 84 74Z" fill="url(#land)"/>
    <path d="M127 151C141 138 163 132 179 140C192 147 195 162 187 174C179 186 160 193 154 211C147 231 140 263 120 281C112 288 100 292 95 286C90 279 94 269 102 259C109 251 111 241 110 227C109 210 103 201 100 188C97 175 115 164 127 151Z" fill="url(#sand)"/>
    <path d="M119 141C134 127 161 121 181 131C197 139 208 155 201 171C194 186 174 190 166 205C157 220 153 247 136 269C126 282 112 286 101 279C91 272 91 257 96 244C101 229 100 213 95 198C88 177 105 154 119 141Z" fill="url(#land)"/>
    <path d="M214 94C233 78 259 78 276 90C291 101 294 122 278 126C264 130 251 125 239 129C228 133 221 145 212 146C202 147 196 140 196 130C196 116 203 104 214 94Z" fill="url(#sand)"/>
    <path d="M209 103C226 90 251 89 268 100C281 109 284 126 271 131C259 135 249 131 239 134C229 138 222 149 211 149C201 149 194 142 194 131C194 119 199 111 209 103Z" fill="url(#land)"/>
    <path d="M134 42C148 32 168 33 184 40C196 46 202 58 196 66C189 74 176 74 169 70C162 66 156 64 147 64C139 64 127 65 121 58C116 53 121 46 134 42Z" fill="#EFF4FF"/>
    <path d="M189 48C205 38 227 39 240 51C250 60 252 74 241 77C231 80 224 73 217 69C210 66 201 65 193 63C186 61 181 54 189 48Z" fill="#EFF4FF"/>
    <path d="M254 56C264 49 279 50 287 58C294 65 294 75 286 77C278 78 274 72 269 69C264 66 249 62 254 56Z" fill="#EFF4FF"/>
    <path d="M167 279C177 272 192 272 201 279C208 284 207 294 198 296C190 297 186 292 180 291C174 289 160 286 167 279Z" fill="#EFF4FF"/>
    <ellipse cx="109" cy="146" rx="20" ry="24" fill="white"/>
    <ellipse cx="213" cy="146" rx="20" ry="24" fill="white"/>
    <path d="M78 111C94 104 118 102 132 108C136 110 138 114 137 119C136 124 132 128 126 128H78C73 128 69 124 68 119C67 115 70 111 78 111Z" fill="#18131B"/>
    <path d="M188 108C202 103 225 103 242 111C249 114 252 118 251 123C250 127 246 130 240 130H193C188 130 183 126 182 122C181 118 183 113 188 108Z" fill="#18131B"/>
    <path d="M128 214C143 226 177 226 193 209" stroke="#18131B" stroke-width="11" stroke-linecap="round"/>
  </g>
</svg>
